<svg id="Health_Services" data-name="Health Services" xmlns="http://www.w3.org/2000/svg" width="16.1" height="16.1" viewBox="0 0 16.1 16.1">
  <path id="Path_1649" data-name="Path 1649" d="M18.547,27.7a.336.336,0,0,1-.238-.1l-2.589-2.582a.337.337,0,0,1,.475-.477l2.589,2.582A.338.338,0,0,1,18.547,27.7Z" transform="translate(-10.784 -16.878)" fill="#B1040E"/>
  <path id="Path_1650" data-name="Path 1650" d="M15.566,2.684l-.771-.771a.313.313,0,0,0-.078-.078l-.9-.9-.02-.022L13.769.888,12.98.1A.337.337,0,1,0,12.5.575l.573.573-2.5,2.49-.531-.531a.339.339,0,0,0-.064-.064l-.4-.4a.337.337,0,0,0-.476.476l.2.2L3.07,9.533a.336.336,0,0,0-.1.238v.862a.336.336,0,0,0,.1.238l.143.143-.574.566a1.024,1.024,0,0,0-.194,1.173L.1,15.089a.337.337,0,0,0,.475.477l2.349-2.34a1.022,1.022,0,0,0,1.16-.2l.573-.569.137.137a.337.337,0,0,0,.238.1h.862a.336.336,0,0,0,.238-.1l6.228-6.223.19.19a.337.337,0,0,0,.476-.476L12.043,5.1,14.519,2.59l.57.57a.337.337,0,0,0,.476-.476ZM3.608,12.55a.349.349,0,0,1-.5-.492l.575-.568.492.492Zm7.6-5.981-.458-.458a.337.337,0,1,0-.476.476l.458.458-.672.672L9.9,7.557a.337.337,0,1,0-.473.479l.158.156-.673.672-.46-.457a.337.337,0,0,0-.474.477l.458.455L6.612,11.162l-.458-.456a.337.337,0,1,0-.475.477l.457.455-.383.382H5.171L3.943,10.792l-.012-.014-.018-.016-.268-.268V9.911L9.775,3.788l.54.54a.33.33,0,0,0,.047.047l.925.925a.326.326,0,0,0,.087.087l.509.509Zm.357-1.941-.514-.514,2.5-2.49.49.49Z" transform="translate(0 0)" fill="#B1040E"/>
  <path id="Path_1651" data-name="Path 1651" d="M34.184,37.446a3.275,3.275,0,0,1-2.861-4.828l-.213-.793a.583.583,0,0,1,.718-.712l.789.211a3.261,3.261,0,1,1,1.567,6.122Zm-2.326-5.587.192.717a.357.357,0,0,1-.04.279,2.548,2.548,0,1,0,.844-.844.357.357,0,0,1-.279.04Z" transform="translate(-21.346 -21.346)" fill="#B1040E"/>
  <path id="Path_1652" data-name="Path 1652" d="M42.249,37.017a.158.158,0,0,1-.134-.24l.01-.016a.482.482,0,0,0,.028-.42l-.022.042a.794.794,0,0,1-.554.386.158.158,0,1,1-.055-.311.476.476,0,0,0,.4-.46.158.158,0,0,1,.249-.125.8.8,0,0,1,.23,1.045l-.015.026a.158.158,0,0,1-.134.073Z" transform="translate(-28.575 -24.747)" fill="#B1040E"/>
  <path id="Path_1653" data-name="Path 1653" d="M38.127,37.012a.158.158,0,0,1-.134-.074l-.015-.026a.8.8,0,0,1,.23-1.045.158.158,0,0,1,.249.125.476.476,0,0,0,.4.46.158.158,0,1,1-.055.311.794.794,0,0,1-.555-.387q-.012-.02-.022-.042a.49.49,0,0,0-.024.077.481.481,0,0,0,.052.344l.009.016a.158.158,0,0,1-.134.241Z" transform="translate(-26.147 -24.742)" fill="#B1040E"/>
  <path id="Path_1654" data-name="Path 1654" d="M44.113,39.039a.158.158,0,0,1-.012-.315.354.354,0,0,0,.215-.077.236.236,0,1,0-.31-.31.2.2,0,0,0-.035.048.158.158,0,0,1-.28-.147.514.514,0,0,1,.091-.125.68.68,0,0,1,.5-.171h0a1.329,1.329,0,0,1,.276.031.158.158,0,0,1,.117.117,1.332,1.332,0,0,1,.031.276.681.681,0,0,1-.171.5.635.635,0,0,1-.414.168h-.012Z" transform="translate(-30.153 -26.194)" fill="#B1040E"/>
  <path id="Path_1655" data-name="Path 1655" d="M36.438,39.04h-.012a.636.636,0,0,1-.414-.168.682.682,0,0,1-.171-.5,1.333,1.333,0,0,1,.031-.276.158.158,0,0,1,.117-.117,1.332,1.332,0,0,1,.276-.031h0a.68.68,0,0,1,.5.171.514.514,0,0,1,.091.126.158.158,0,0,1-.28.146.2.2,0,0,0-.035-.049.236.236,0,1,0-.31.31.354.354,0,0,0,.215.077.158.158,0,0,1-.012.315Z" transform="translate(-24.742 -26.196)" fill="#B1040E"/>
  <path id="Path_1656" data-name="Path 1656" d="M38.98,44.61H37.095a.581.581,0,0,1-.58-.58v-.155a.581.581,0,0,1,.58-.58H38.98a.581.581,0,0,1,.58.58v.155a.58.58,0,0,1-.58.58Zm-1.885-1a.265.265,0,0,0-.265.265v.155a.265.265,0,0,0,.265.265H38.98a.265.265,0,0,0,.265-.265v-.155a.265.265,0,0,0-.265-.265Z" transform="translate(-25.21 -29.891)" fill="#B1040E"/>
  <path id="Path_1657" data-name="Path 1657" d="M42.534,41.29a.158.158,0,0,1-.158-.158v-.183a.158.158,0,0,1,.315,0v.183a.158.158,0,0,1-.158.158Z" transform="translate(-29.257 -28.162)" fill="#B1040E"/>
  <path id="Path_1658" data-name="Path 1658" d="M39.626,41.29a.158.158,0,0,1-.158-.158v-.183a.158.158,0,1,1,.315,0v.183a.158.158,0,0,1-.158.158Z" transform="translate(-27.248 -28.162)" fill="#B1040E"/>
  <path id="Path_1659" data-name="Path 1659" d="M43.064,45.136h-.031l-.008,0-.007,0-.007,0-.007,0-.007,0-.007,0-.007,0-.007,0-.006,0-.006,0-.006-.005-.006-.005-.005-.006-.005-.006,0-.006,0-.006,0-.007,0-.007,0-.007,0-.007,0-.007a.029.029,0,0,0,0-.007.028.028,0,0,0,0-.007l0-.008a.026.026,0,0,0,0-.008s0-.005,0-.008a.02.02,0,0,1,0-.008v-.024a.02.02,0,0,1,0-.008.015.015,0,0,1,0-.008.026.026,0,0,0,0-.008l0-.007,0-.007a.022.022,0,0,1,0-.007l0-.007,0-.007,0-.007,0-.007,0-.007,0-.006.005-.006.005-.006.006-.005.006-.005.006,0,.006,0,.007,0,.007,0,.007,0,.007,0,.007,0,.007,0,.007,0,.008,0h.062l.008,0,.007,0,.007,0,.007,0,.007,0,.007,0,.007,0,.007,0,.006,0,.006,0,.006.005.006.005.005.006.005.006,0,.006,0,.007,0,.007,0,.007,0,.007,0,.007s0,0,0,.007l0,.007,0,.007a.034.034,0,0,0,0,.008.025.025,0,0,0,0,.008s0,.005,0,.008V45a.015.015,0,0,1,0,.008.025.025,0,0,0,0,.008l0,.007a.025.025,0,0,1,0,.007.022.022,0,0,1,0,.007l0,.007,0,.007,0,.007,0,.007,0,.006,0,.006-.005.006-.005.006-.006.005-.006.005-.006,0-.006,0-.007,0-.007,0-.007,0-.007,0-.007,0-.007,0-.007,0-.008,0h-.031Z" transform="translate(-29.621 -30.943)" fill="#B1040E"/>
  <path id="Path_1660" data-name="Path 1660" d="M39.093,45.141h-.031l-.008,0-.007,0-.007,0-.007,0-.007,0-.007,0-.007,0-.007,0-.007,0-.006,0-.006-.005-.006-.005-.005-.006-.005-.006,0-.006,0-.007,0-.007,0-.007,0-.007s0,0,0-.007l0-.007,0-.007a.03.03,0,0,0,0-.007l0-.007a.02.02,0,0,0,0-.008s0-.005,0-.008v-.039a.015.015,0,0,1,0-.008.025.025,0,0,0,0-.008.028.028,0,0,1,0-.007l0-.007,0-.007,0-.007,0-.007,0-.007,0-.007,0-.006,0-.006.005-.006.005-.006.006-.005.006-.005.006,0,.008,0,.007,0,.007,0,.007,0,.007,0,.007,0,.007,0,.007,0,.008,0h.062l.008,0,.007,0,.007,0,.007,0,.007,0,.007,0,.007,0,.007,0,.007,0,.006,0,.006.005.006.005.005.006.005.006,0,.006,0,.006,0,.007,0,.007,0,.007,0,.007,0,.007a.029.029,0,0,0,0,.007l0,.007,0,.008a.015.015,0,0,0,0,.008.045.045,0,0,1,0,.008v.039a.015.015,0,0,1,0,.008.026.026,0,0,0,0,.007l0,.007a.025.025,0,0,1,0,.007l0,.007,0,.007,0,.007,0,.007,0,.007,0,.006,0,.006-.005.006-.005.006L39.2,45.1l-.006.005-.006,0-.007,0-.007,0-.007,0-.007,0-.007,0-.007,0-.007,0-.007,0-.008,0h-.031Z" transform="translate(-26.88 -30.949)" fill="#B1040E"/>
  <path id="Path_1661" data-name="Path 1661" d="M37.422,39.862a.158.158,0,0,1-.158-.158v-.81a1.079,1.079,0,0,1,1.079-1.079h.422a1.079,1.079,0,0,1,1.079,1.079v.074a.158.158,0,0,1-.315,0v-.074a.764.764,0,0,0-.763-.763h-.423a.764.764,0,0,0-.763.763v.81a.158.158,0,0,1-.158.158Z" transform="translate(-25.727 -26.107)" fill="#B1040E"/>
</svg>
