<svg xmlns="http://www.w3.org/2000/svg" xmlns:xlink="http://www.w3.org/1999/xlink" width="26" height="26" viewBox="0 0 26 26">
  <defs>
    <clipPath id="clip-path">
      <circle id="Ellipse_153" data-name="Ellipse 153" cx="13" cy="13" r="13" transform="translate(26 417)" fill="#AD040E"/>
    </clipPath>
  </defs>
  <g id="Mask_Group_128" data-name="Mask Group 128" transform="translate(-26 -417)" clip-path="url(#clip-path)">
    <g id="cow_3_" data-name="cow (3)" transform="translate(29.993 420.373)">
      <g id="Group_481" data-name="Group 481" transform="translate(0 2.018)">
        <path id="Path_1617" data-name="Path 1617" d="M17.452,8.839a.264.264,0,0,0-.264.264v.2a.264.264,0,1,0,.528,0V9.1A.264.264,0,0,0,17.452,8.839Z" transform="translate(-5.279 -4.113)" fill="#AD040E"/>
        <path id="Path_1618" data-name="Path 1618" d="M20.8,8.839a.264.264,0,0,0-.264.264v.2a.264.264,0,1,0,.528,0V9.1A.264.264,0,0,0,20.8,8.839Z" transform="translate(-6.309 -4.113)" fill="#AD040E"/>
        <path id="Path_1619" data-name="Path 1619" d="M17.846,12.809a.264.264,0,0,0-.264.264V13.5a.264.264,0,1,0,.528,0v-.427A.264.264,0,0,0,17.846,12.809Z" transform="translate(-5.4 -5.332)" fill="#AD040E"/>
        <path id="Path_1620" data-name="Path 1620" d="M20.41,13.764a.264.264,0,0,0,.264-.264v-.427a.264.264,0,1,0-.528,0V13.5A.264.264,0,0,0,20.41,13.764Z" transform="translate(-6.187 -5.332)" fill="#AD040E"/>
        <g id="Group_480" data-name="Group 480">
          <path id="Path_1621" data-name="Path 1621" d="M8.915,13.026a1.016,1.016,0,0,0-1.25.065,1.8,1.8,0,0,0-.19.19c-.112.125-.12.124-.159.115a1.493,1.493,0,0,0-1.416.409A1.328,1.328,0,0,0,5.625,15.2a1.437,1.437,0,0,0,1.154.9q.055.005.109.005a1.063,1.063,0,0,0,.905-.514,1.558,1.558,0,0,1,.761-.609,1.2,1.2,0,0,0,.76-.733,1.041,1.041,0,0,0-.4-1.218Zm-.1,1.051c-.076.226-.2.292-.481.421a2.053,2.053,0,0,0-.983.8.528.528,0,0,1-.52.269A.922.922,0,0,1,6.115,15a.79.79,0,0,1,.183-.852.9.9,0,0,1,.672-.264,1.105,1.105,0,0,1,.234.025h0a.654.654,0,0,0,.664-.279A1.335,1.335,0,0,1,8,13.5a.494.494,0,0,1,.614-.034A.518.518,0,0,1,8.814,14.077Z" transform="translate(-1.699 -5.342)" fill="#AD040E"/>
          <path id="Path_1622" data-name="Path 1622" d="M17.956,5.864a.429.429,0,0,0-.3-.171,1.343,1.343,0,0,1-.771-.486,1.552,1.552,0,0,0-1.541-.379L15.3,4.037A.752.752,0,0,0,13.906,3.6l-.5.637h-.073l-.076,0-.5-.637a.752.752,0,0,0-1.391.438l-.042.792a1.554,1.554,0,0,0-1.544.379,2.091,2.091,0,0,1-.416.349H4.95A4,4,0,0,0,1.182,8.231,3.789,3.789,0,0,1,.83,4.6a.985.985,0,0,0,.236.029,1.01,1.01,0,0,0,.195-.019A.991.991,0,0,0,1.9,4.185a2.29,2.29,0,0,0,.546-1.58.732.732,0,0,0-.326-.478c-.6-.384-1.456.322-1.876.945h0A1,1,0,0,0,.366,4.335a4.4,4.4,0,0,0,.646,4.559,4,4,0,0,0-.054.657c0,.181,0,.357,0,.529q0,.011,0,.022c.013,1.423.08,2.548.192,4.017L1.34,16.6a.664.664,0,0,0,.653.634H3.122a.63.63,0,0,0,.6-.3.66.66,0,0,0-.051-.669l-.273-.446.133-1.629h.882L4.591,16.6a.664.664,0,0,0,.653.634H6.373a.63.63,0,0,0,.6-.3.66.66,0,0,0-.051-.669l-.273-.445.146-1.629H8.251l.13,1.713v.008l.052.688a.666.666,0,0,0,.653.633h1.129a.63.63,0,0,0,.6-.3.661.661,0,0,0-.05-.67l-.273-.445.183-2.042h.036c.173.006.41.013.683.012L11.6,16.6a.664.664,0,0,0,.653.634h1.128a.63.63,0,0,0,.6-.3.66.66,0,0,0-.051-.669l-.273-.445.217-2.429a2.3,2.3,0,0,0,.689-.441,1.6,1.6,0,0,0,.5-1.191v-.135a3.882,3.882,0,0,0,.368-.292c.826-.738,1.144-1.422.947-2.031l-.008-.021c0-.008,0-.017,0-.026l.051-.649c.014-.173.039-.346.066-.529.032-.215.064-.434.076-.656a1.825,1.825,0,0,0,1.424-1.157.51.51,0,0,0-.035-.4ZM.679,3.366c.389-.578.958-.92,1.152-.8a.2.2,0,0,1,.095.141c.023.111.023.449-.467,1.179a.47.47,0,0,1-.78-.524Zm13.643.558c.117-.149.235-.166.273-.151l.036.011c.041.01.129.091.139.28l.027.51a3.281,3.281,0,0,0-.773-.268ZM11.9,4.066c.01-.189.1-.271.139-.281A.275.275,0,0,1,12.1,3.77a.341.341,0,0,1,.244.155l.3.383-.023.006a3.278,3.278,0,0,0-.751.264ZM10.167,5.573a.992.992,0,0,1,.749-.28,3.284,3.284,0,0,0-.711,1.222,2.262,2.262,0,0,0-.084.353,1.326,1.326,0,0,1-.92-.675A1.9,1.9,0,0,0,10.167,5.573Zm.992,5.693a1.058,1.058,0,0,1-.843.81,1.425,1.425,0,0,1-1.329-.62.554.554,0,0,1,.022-.665A2.43,2.43,0,0,0,9.4,9.181c-.006-.4,0-.647.142-.792a1.047,1.047,0,0,1,.673-.2c.008.062.015.125.02.19l.061.8c-.012.027-.023.055-.032.083C10.065,9.858,10.366,10.532,11.159,11.265Zm-7.9,5.415a.212.212,0,0,1-.135.029H1.993a.142.142,0,0,1-.127-.146l-.031-.412H2.976l.241.394a.188.188,0,0,1,.04.136Zm3.252,0a.213.213,0,0,1-.136.029H5.245a.142.142,0,0,1-.127-.146l-.031-.412H6.228l.241.394A.188.188,0,0,1,6.509,16.68Zm-.374-1.057H5.046l-.108-1.428H6.262Zm4.217,1.057c0,.006-.041.029-.135.029H9.087a.143.143,0,0,1-.127-.146l-.031-.412H10.07l.242.393A.189.189,0,0,1,10.351,16.68Zm3.17,0a.213.213,0,0,1-.136.029H12.257a.142.142,0,0,1-.127-.146L12.1,16.15H13.24l.241.394A.188.188,0,0,1,13.521,16.68Zm-.375-1.057H12.058l-.14-1.842a7.022,7.022,0,0,0,1.41-.2Zm1.051-3.05a1.9,1.9,0,0,1-.64.385.263.263,0,0,0-.047.018,6.122,6.122,0,0,1-1.866.287h-.033c-.359.008-.674,0-.887-.009a2.726,2.726,0,0,0-.324,0,.264.264,0,0,0-.233.239l-.191,2.132H8.889L8.759,13.91a.264.264,0,0,0-.263-.244H4.7c-.021,0-1.1,0-1.1,0a2.089,2.089,0,0,1-.28-.019.264.264,0,0,0-.3.24l-.142,1.735H1.795l-.117-1.544c-.1-1.316-.164-2.354-.185-3.581a3.047,3.047,0,0,0,1.042.208,1.811,1.811,0,0,0,.576-.089,1.548,1.548,0,0,0,.929-.872,1.919,1.919,0,0,1,.517-.707.264.264,0,0,0-.334-.408,2.432,2.432,0,0,0-.662.9,1.027,1.027,0,0,1-.617.591,2.175,2.175,0,0,1-1.457-.191c0-.122,0-.247,0-.374A3.47,3.47,0,0,1,4.95,6.085H6.171c.105,1.626-.338,1.816-.636,1.943a.264.264,0,1,0,.208.485c.645-.276,1.055-.8.957-2.429H8.651a.936.936,0,0,0,.024.18,1.8,1.8,0,0,0,1.43,1.146c.007.086.018.171.03.256a1.445,1.445,0,0,0-.97.353,1.528,1.528,0,0,0-.295,1.171,1.948,1.948,0,0,1-.284,1.284,1.081,1.081,0,0,0-.054,1.251,1.949,1.949,0,0,0,1.622.89,1.633,1.633,0,0,0,.238-.017,1.517,1.517,0,0,0,1.2-.979,3.013,3.013,0,0,0,1.742.581,2.87,2.87,0,0,0,1.19-.264,1.054,1.054,0,0,1-.325.638ZM15.968,8c-.027.184-.055.374-.07.565l-.006.08A3.792,3.792,0,0,0,13.97,8a.264.264,0,1,0-.055.525c1.041.109,1.811.479,1.961.942.158.489-.346,1.072-.8,1.476a3.356,3.356,0,0,1-.412.316l-.02.013a2.406,2.406,0,0,1-3.061-.329c-.668-.6-.953-1.121-.823-1.513.011-.033.028-.064.042-.1a2.5,2.5,0,0,1,1.937-.819.264.264,0,1,0-.047-.526,3.859,3.859,0,0,0-1.916.61l-.02-.258c-.016-.205-.044-.385-.072-.558a2.133,2.133,0,0,1,.02-1.1,2.763,2.763,0,0,1,5.258,0A2.9,2.9,0,0,1,15.968,8Zm.581-1.121a2.136,2.136,0,0,0-.082-.364,3.289,3.289,0,0,0-.712-1.223.988.988,0,0,1,.743.28,1.9,1.9,0,0,0,.966.621A1.348,1.348,0,0,1,16.549,6.879Z" transform="translate(0 -2.018)" fill="#AD040E"/>
        </g>
      </g>
    </g>
  </g>
</svg>
