<svg xmlns="http://www.w3.org/2000/svg" xmlns:xlink="http://www.w3.org/1999/xlink" width="140.661" height="25.337" viewBox="0 0 140.661 25.337">
  <defs>
    <linearGradient id="linear-gradient" y1="0.5" x2="1" y2="0.5" gradientUnits="objectBoundingBox">
      <stop offset="0" stop-color="#b1040e"/>
      <stop offset="0.049" stop-color="#b60710"/>
      <stop offset="0.466" stop-color="#de1f23"/>
      <stop offset="0.797" stop-color="#f62e2f"/>
      <stop offset="1" stop-color="#f33"/>
    </linearGradient>
  </defs>
  <g id="logo-m-01" transform="translate(-419.465 -156.465)">
    <g id="Group_457" data-name="Group 457" transform="translate(419.465 156.465)">
      <path id="Path_1542" data-name="Path 1542" d="M494.2,154.644a4.339,4.339,0,0,0-5.815-1.662,5.65,5.65,0,0,0-2.176,2.467q-.835,1.449-1.672,2.9-3.347,5.8-6.692,11.591a.43.43,0,0,0,.555.6,4.5,4.5,0,0,1,6.266,3.334.43.43,0,0,0,.8.155l4.787-8.362c.108-.189.265-.189.373,0l5.96,10.411a.39.39,0,0,0,.268.2l5.943,1.5a.429.429,0,0,0,.533-.378q.256-2.954.515-5.9a.409.409,0,0,0-.056-.252q-4.8-8.312-9.6-16.625" transform="translate(-476.976 -152.465)" fill="url(#linear-gradient)"/>
      <path id="Path_1543" data-name="Path 1543" d="M426.993,1477.305a3.264,3.264,0,1,0-3.264,3.265A3.264,3.264,0,0,0,426.993,1477.305Z" transform="translate(-420.465 -1455.297)" fill="#b1040e"/>
    </g>
    <g id="Group_465" data-name="Group 465" transform="translate(459.565 160.465)">
      <g id="Group_460" data-name="Group 460" transform="translate(27.758)">
        <path id="Path_1563" data-name="Path 1563" d="M6864.135,385.634a1.761,1.761,0,0,1-.034.347,1.647,1.647,0,0,1-.1.325,1.524,1.524,0,0,1-.383.521,1.549,1.549,0,0,1-.25.178,1.512,1.512,0,0,1-.269.123,1.7,1.7,0,0,1-1.125,0,1.557,1.557,0,0,1-.519-.3,1.5,1.5,0,0,1-.216-.235,1.535,1.535,0,0,1-.167-.286,1.556,1.556,0,0,1-.1-.325,1.761,1.761,0,0,1,0-.7,1.59,1.59,0,0,1,.1-.326,1.52,1.52,0,0,1,.167-.285,1.462,1.462,0,0,1,.216-.235,1.563,1.563,0,0,1,.25-.179,1.627,1.627,0,0,1,.27-.122,1.7,1.7,0,0,1,1.125,0,1.57,1.57,0,0,1,.269.122,1.545,1.545,0,0,1,.25.179,1.488,1.488,0,0,1,.216.235,1.517,1.517,0,0,1,.167.285,1.622,1.622,0,0,1,.1.326A1.773,1.773,0,0,1,6864.135,385.634Z" transform="translate(-6829.444 -384.042)" fill="#231f20"/>
        <g id="Group_459" data-name="Group 459" transform="translate(0 1.266)">
          <path id="Path_1564" data-name="Path 1564" d="M8887.061,694.012a1.34,1.34,0,0,0-.074-.24,1.054,1.054,0,0,0-.1-.181,1.025,1.025,0,0,0-.136-.166,1.114,1.114,0,0,0-.166-.136,1.2,1.2,0,0,0-.181-.1,1.222,1.222,0,0,0-.239-.073,1.8,1.8,0,0,0-.679,0,1.224,1.224,0,0,0-.239.074,1.084,1.084,0,0,0-.181.1.985.985,0,0,0-.165.136,1,1,0,0,0-.136.166,1.065,1.065,0,0,0-.1.18,1.266,1.266,0,0,0-.073.239,1.732,1.732,0,0,0-.031.265c-.132-.108-.268-.21-.41-.305a5.8,5.8,0,0,0-1.2-.618,6.138,6.138,0,0,0-.917-.265,6.293,6.293,0,0,0-.946-.126c-.091,0-.181-.008-.271-.01s-.181,0-.271,0c-.133,0-.267.01-.4.021s-.266.025-.4.044a6.792,6.792,0,0,0-.765.154,6.434,6.434,0,0,0-.739.244,6.206,6.206,0,0,0-1.338.73,6.082,6.082,0,0,0-1.114,1.035,5.747,5.747,0,0,0-.459.625,6.019,6.019,0,0,0-.376.678,6.391,6.391,0,0,0-.3.75,6.576,6.576,0,0,0-.2.782c-.027.138-.049.277-.067.417s-.032.28-.042.421-.017.29-.019.436,0,.291.008.436a6.965,6.965,0,0,0,.277,1.651,6.5,6.5,0,0,0,.274.747,6.219,6.219,0,0,0,.365.706,6.042,6.042,0,0,0,.953,1.21,6.078,6.078,0,0,0,.574.5,6.374,6.374,0,0,0,.635.426,6.224,6.224,0,0,0,.687.348,6.32,6.32,0,0,0,.725.262c.127.037.255.071.383.1s.258.055.388.077a6.571,6.571,0,0,0,.787.083c.1.006.2.008.3.008s.2,0,.3-.006c.157-.006.313-.019.469-.037s.31-.042.462-.071.307-.065.456-.107.3-.089.447-.143.292-.112.436-.177a5.738,5.738,0,0,0,.679-.368,5.867,5.867,0,0,0,.624-.456,1.647,1.647,0,0,0,.031.259,1.3,1.3,0,0,0,.073.239,1.079,1.079,0,0,0,.1.181,1.066,1.066,0,0,0,.136.166,1.05,1.05,0,0,0,.165.135,1.072,1.072,0,0,0,.181.1,1.207,1.207,0,0,0,.239.074,1.474,1.474,0,0,0,.169.025c.057.005.113.007.171.007s.113,0,.171-.007.111-.013.168-.024a1.175,1.175,0,0,0,.121-.031,1.058,1.058,0,0,0,.118-.042,1.091,1.091,0,0,0,.181-.1,1.042,1.042,0,0,0,.087-.063c.027-.023.055-.047.079-.072a1.078,1.078,0,0,0,.072-.08.95.95,0,0,0,.063-.086,1.072,1.072,0,0,0,.1-.181,1.032,1.032,0,0,0,.044-.118c.012-.04.021-.081.03-.122a1.4,1.4,0,0,0,.024-.169,1.634,1.634,0,0,0,.008-.17V694.351A1.647,1.647,0,0,0,8887.061,694.012Zm-2.415,5.755a4.416,4.416,0,0,1-.114.7,4.041,4.041,0,0,1-.223.661,3.765,3.765,0,0,1-.326.6,3.575,3.575,0,0,1-.433.531,3.372,3.372,0,0,1-.533.442,3.519,3.519,0,0,1-.644.34,3.968,3.968,0,0,1-.764.223,4.827,4.827,0,0,1-.9.08,4.211,4.211,0,0,1-.742-.065,3.86,3.86,0,0,1-.687-.188,3.766,3.766,0,0,1-.661-.323,3.564,3.564,0,0,1-.542-.412,3.63,3.63,0,0,1-.457-.509,3.819,3.819,0,0,1-.362-.6,3.966,3.966,0,0,1-.255-.693c-.034-.128-.062-.258-.084-.387s-.037-.262-.049-.394-.016-.281-.016-.422.008-.281.021-.42.029-.261.054-.39.053-.256.088-.383.071-.234.114-.348.094-.225.147-.335a3.41,3.41,0,0,1,.17-.3c.062-.1.127-.195.2-.287a3.629,3.629,0,0,1,.464-.5c.084-.075.173-.147.264-.213s.187-.13.283-.188a3.784,3.784,0,0,1,.347-.183,3.732,3.732,0,0,1,.363-.147c.113-.039.229-.072.344-.1s.234-.052.353-.07q.091-.014.185-.023c.061-.007.123-.012.185-.016s.113-.006.171-.007.114,0,.171,0c.149,0,.3.01.446.024s.3.037.442.066a3.993,3.993,0,0,1,.755.231c.111.047.221.1.326.158a3.305,3.305,0,0,1,.31.191c.095.066.187.136.274.211s.173.155.253.238a3.551,3.551,0,0,1,.423.536c.063.1.121.2.175.3s.1.207.147.313.085.216.12.327.067.223.095.336a4.337,4.337,0,0,1,.106.7A4.5,4.5,0,0,1,8884.646,699.766Z" transform="translate(-8814.289 -689.836)" fill="#231f20"/>
          <path id="Path_1565" data-name="Path 1565" d="M4653.565,694.1a1.285,1.285,0,0,0-.074-.239,1.109,1.109,0,0,0-.1-.181,1.059,1.059,0,0,0-.3-.3,1.137,1.137,0,0,0-.181-.1,1.34,1.34,0,0,0-.239-.074,1.811,1.811,0,0,0-.68,0,1.282,1.282,0,0,0-.239.075,1.064,1.064,0,0,0-.346.232,1.027,1.027,0,0,0-.135.166,1.047,1.047,0,0,0-.1.18,1.285,1.285,0,0,0-.074.239,1.6,1.6,0,0,0-.031.265c-.131-.107-.269-.208-.409-.3a5.58,5.58,0,0,0-.583-.344,5.947,5.947,0,0,0-.619-.273,6.19,6.19,0,0,0-.917-.266,6.455,6.455,0,0,0-.946-.126c-.091,0-.181-.008-.271-.01s-.181,0-.271,0q-.2,0-.4.021c-.133.011-.265.025-.4.044a6.794,6.794,0,0,0-.764.154,6.461,6.461,0,0,0-.74.244,6.223,6.223,0,0,0-1.337.73,6.125,6.125,0,0,0-1.115,1.034,6.022,6.022,0,0,0-.458.625,6.1,6.1,0,0,0-.376.678,6.428,6.428,0,0,0-.3.751,6.52,6.52,0,0,0-.2.781c-.027.138-.05.277-.068.417s-.032.28-.042.421-.017.29-.018.436,0,.291.007.436a7.035,7.035,0,0,0,.088.834,6.68,6.68,0,0,0,.189.817,6.351,6.351,0,0,0,.274.746,6.42,6.42,0,0,0,.365.707,6.119,6.119,0,0,0,.438.635,6.058,6.058,0,0,0,.514.575,6.206,6.206,0,0,0,1.209.927,6.28,6.28,0,0,0,.687.348,6.385,6.385,0,0,0,.725.262c.126.037.254.07.382.1s.258.055.388.077a6.565,6.565,0,0,0,.787.083c.1.006.2.008.3.008s.2,0,.3-.006c.157-.006.313-.019.469-.037s.309-.042.462-.071.306-.065.456-.107.3-.089.447-.143.292-.112.434-.177a5.764,5.764,0,0,0,1.3-.825,1.668,1.668,0,0,0,.031.26,1.27,1.27,0,0,0,.073.24,1.19,1.19,0,0,0,.1.181,1.058,1.058,0,0,0,.136.166,1.1,1.1,0,0,0,.166.135,1.075,1.075,0,0,0,.181.1,1.22,1.22,0,0,0,.239.074c.056.011.112.019.169.025s.113.007.17.007.114,0,.171-.007a1.647,1.647,0,0,0,.168-.024,1.17,1.17,0,0,0,.122-.031,1.14,1.14,0,0,0,.118-.043,1.053,1.053,0,0,0,.18-.1c.03-.02.059-.041.087-.064a.843.843,0,0,0,.08-.073.864.864,0,0,0,.072-.079c.023-.029.044-.057.064-.088a1.077,1.077,0,0,0,.1-.181,1.059,1.059,0,0,0,.042-.118,1.248,1.248,0,0,0,.031-.122,1.405,1.405,0,0,0,.024-.169c.005-.057.008-.114.008-.17V694.438A1.708,1.708,0,0,0,4653.565,694.1Zm-2.415,5.754a4.465,4.465,0,0,1-.114.7,4.246,4.246,0,0,1-.222.66,3.931,3.931,0,0,1-.328.6,3.614,3.614,0,0,1-.431.53,3.452,3.452,0,0,1-.534.443,3.549,3.549,0,0,1-.644.34,3.943,3.943,0,0,1-.764.223,4.838,4.838,0,0,1-.9.08,4.208,4.208,0,0,1-.742-.065,3.927,3.927,0,0,1-.687-.187,3.771,3.771,0,0,1-.661-.324,3.567,3.567,0,0,1-.542-.411,3.619,3.619,0,0,1-.457-.51,3.675,3.675,0,0,1-.362-.6,3.939,3.939,0,0,1-.254-.693c-.034-.128-.062-.257-.084-.388s-.039-.262-.049-.394-.016-.281-.015-.422.007-.281.02-.42.03-.261.054-.39.053-.256.088-.383.071-.234.115-.348.092-.226.146-.335.108-.206.17-.3a3.352,3.352,0,0,1,.2-.286,3.567,3.567,0,0,1,.462-.5q.127-.113.264-.213c.091-.067.186-.129.283-.188q.168-.1.347-.183c.119-.054.24-.1.364-.145s.228-.072.344-.1.234-.052.352-.07c.061-.009.122-.017.184-.024s.123-.012.185-.016.114-.006.171-.007.114,0,.171,0c.148,0,.3.01.446.024s.3.037.441.066a3.947,3.947,0,0,1,.756.231c.111.047.221.1.327.157a3.624,3.624,0,0,1,.309.191,3.324,3.324,0,0,1,.274.211,3.378,3.378,0,0,1,.253.238,3.6,3.6,0,0,1,.424.536q.093.144.174.3t.146.312c.045.107.086.216.122.327s.067.223.094.336a4.436,4.436,0,0,1,.106.7A4.486,4.486,0,0,1,4651.15,699.854Z" transform="translate(-4640.839 -689.924)" fill="#231f20"/>
          <path id="Path_1566" data-name="Path 1566" d="M5807.423,699.762q0-1.885,0-3.77t0-3.77q0-.636,0-1.271v-.635c0-.106,0-.212,0-.317v-.159c0-.027,0-.053,0-.08s0-.052,0-.079v-.016s0,0,0-.005v-.021a.077.077,0,0,0,0-.01.082.082,0,0,0,0-.011c0-.007,0-.014,0-.021l0-.044,0-.044c0-.014,0-.029.005-.044s0-.029.006-.044.01-.057.017-.086.014-.057.022-.085l.007-.023c0-.008,0-.016.008-.024l.008-.023.009-.023c.005-.014.012-.03.019-.045l.021-.044c.016-.032.032-.062.051-.092l.028-.044.03-.042.034-.042c.011-.014.023-.027.036-.04a.932.932,0,0,1,.078-.075c.026-.023.055-.045.083-.066s.059-.039.089-.057a1.1,1.1,0,0,1,.182-.083,1.333,1.333,0,0,1,.294-.07c.056-.006.112-.011.168-.012h.083l.083,0a1.457,1.457,0,0,1,.347.06c.031.009.062.02.092.031s.061.026.089.04.062.032.091.05.059.039.086.06a1.073,1.073,0,0,1,.157.148.834.834,0,0,1,.065.084,1.019,1.019,0,0,1,.057.089,1.072,1.072,0,0,1,.069.144,1.154,1.154,0,0,1,.049.15,4.775,4.775,0,0,1,.432-.291,5.1,5.1,0,0,1,.6-.308,5.543,5.543,0,0,1,.952-.308,6.259,6.259,0,0,1,.98-.141c.083-.005.165-.008.248-.011h.237l.114,0c.038,0,.076,0,.113.005l.113.005.113.009a6.793,6.793,0,0,1,.867.123,6.081,6.081,0,0,1,.814.229,5.448,5.448,0,0,1,.752.335,4.918,4.918,0,0,1,1.782,1.61,5.1,5.1,0,0,1,.4.72,5.506,5.506,0,0,1,.291.8,6.291,6.291,0,0,1,.177.866,7.113,7.113,0,0,1,.059.929v5.884a1.682,1.682,0,0,1-.032.339,1.291,1.291,0,0,1-.074.24,1.148,1.148,0,0,1-.1.181,1.056,1.056,0,0,1-.136.166,1.029,1.029,0,0,1-.167.135,1.067,1.067,0,0,1-.18.1,1.341,1.341,0,0,1-.24.074,1.661,1.661,0,0,1-.168.024c-.057.005-.114.007-.17.007s-.114,0-.17-.007a1.646,1.646,0,0,1-.168-.025,1.143,1.143,0,0,1-.122-.03,1.192,1.192,0,0,1-.118-.043,1.049,1.049,0,0,1-.18-.1.9.9,0,0,1-.087-.064c-.028-.023-.054-.047-.08-.072s-.049-.052-.072-.08a.934.934,0,0,1-.063-.086,1.116,1.116,0,0,1-.1-.181,1.232,1.232,0,0,1-.043-.117c-.012-.04-.022-.08-.03-.122a1.4,1.4,0,0,1-.024-.168c-.005-.056-.007-.113-.007-.17V693.9a4.621,4.621,0,0,0-.055-.73,3.494,3.494,0,0,0-.153-.617,2.8,2.8,0,0,0-.239-.511,2.5,2.5,0,0,0-.315-.417,2.433,2.433,0,0,0-.394-.335,2.768,2.768,0,0,0-.479-.259,3.329,3.329,0,0,0-.571-.18q-.164-.037-.33-.059c-.111-.015-.222-.027-.334-.034l-.183-.008c-.061,0-.122,0-.183,0s-.112,0-.168,0-.113.006-.169.011q-.157.015-.313.043a3.158,3.158,0,0,0-.309.072c-.1.027-.189.059-.282.095s-.184.076-.272.12a3.062,3.062,0,0,0-.485.306c-.075.058-.146.12-.216.184s-.135.133-.2.2-.123.147-.179.224-.109.158-.158.241a3.292,3.292,0,0,0-.269.575c-.035.1-.065.2-.092.3s-.048.2-.065.307-.032.221-.041.332-.014.223-.014.335v5.658a1.651,1.651,0,0,1-.032.34,1.258,1.258,0,0,1-.074.24,1.124,1.124,0,0,1-.1.18,1.057,1.057,0,0,1-.3.3,1.106,1.106,0,0,1-.18.1,1.336,1.336,0,0,1-.239.074,1.653,1.653,0,0,1-.169.024c-.056.005-.113.007-.17.007s-.114,0-.17-.007a1.625,1.625,0,0,1-.168-.024c-.041-.008-.082-.019-.122-.031a1.107,1.107,0,0,1-.118-.043,1.05,1.05,0,0,1-.181-.1c-.03-.02-.059-.041-.087-.064s-.054-.046-.079-.072a1.06,1.06,0,0,1-.072-.079c-.022-.028-.044-.057-.063-.086a1.153,1.153,0,0,1-.1-.181c-.016-.039-.03-.078-.042-.118s-.022-.081-.031-.122a1.5,1.5,0,0,1-.024-.169C5807.425,699.875,5807.423,699.818,5807.423,699.762Z" transform="translate(-5790.868 -685.195)" fill="#231f20"/>
          <path id="Path_1567" data-name="Path 1567" d="M6883.314,700.664c0-.058,0-.116-.008-.173a1.463,1.463,0,0,0-.027-.179,1.232,1.232,0,0,0-.077-.24,1.1,1.1,0,0,0-.1-.187,1.017,1.017,0,0,0-.146-.169,1.048,1.048,0,0,0-.177-.135,1.223,1.223,0,0,0-.188-.092,1.388,1.388,0,0,0-.294-.073c-.058-.008-.116-.012-.175-.015h-.084l-.086,0a1.431,1.431,0,0,0-.178.018,1.446,1.446,0,0,0-.177.041,1.192,1.192,0,0,0-.19.076,1.029,1.029,0,0,0-.184.117,1.062,1.062,0,0,0-.281.338,1.2,1.2,0,0,0-.08.188c-.009.027-.017.055-.024.084s-.013.056-.019.085-.01.059-.014.088,0,.029,0,.044,0,.029,0,.045,0,.015,0,.022v.021a.1.1,0,0,0,0,.012s0,.007,0,.011,0,.007,0,.011v.011c0,.026,0,.052,0,.077v8.195c0,.147,0,.295-.01.442-.007.179-.016.359-.021.538s-.006.341,0,.512a5.384,5.384,0,0,0,.042.539,1.159,1.159,0,0,0,.023.129,1.025,1.025,0,0,0,.037.123,1.34,1.34,0,0,0,.061.147,1.187,1.187,0,0,0,.085.147,1.328,1.328,0,0,0,.1.131c.017.019.035.038.052.056s.037.036.056.053a1.251,1.251,0,0,0,.271.188,1.047,1.047,0,0,0,.157.065,1.1,1.1,0,0,0,.165.042c.026.005.052.008.078.012l.078.006c.024,0,.049,0,.074,0s.049,0,.074,0a1.272,1.272,0,0,0,.315-.05l.082-.028c.027-.01.053-.022.079-.034s.051-.025.076-.039.049-.029.073-.045.045-.031.066-.048a.777.777,0,0,0,.063-.052c.018-.015.036-.033.054-.049s.035-.034.051-.052a1.053,1.053,0,0,0,.083-.1,1.211,1.211,0,0,0,.078-.112,1.251,1.251,0,0,0,.112-.237.177.177,0,0,0,.009-.024c0-.007,0-.016.007-.023s.01-.036.015-.055.013-.051.018-.077.007-.033.009-.049,0-.018,0-.027l0-.026c0-.036.009-.072.013-.107.007-.068.012-.136.017-.2s.007-.136.009-.2c0-.126,0-.252,0-.379s-.006-.252-.011-.378c0-.068-.005-.137-.008-.206s-.005-.137-.008-.2c0-.11-.006-.221-.006-.331Z" transform="translate(-6848.984 -696.193)" fill="#231f20"/>
          <path id="Path_1568" data-name="Path 1568" d="M7287.005,486.628a3.691,3.691,0,0,1-.442.132c-.086.02-.172.036-.259.047a2.071,2.071,0,0,1-.226.018h-.068l-.121,0c-.072,0-.144-.009-.214-.019a1.733,1.733,0,0,1-.221-.042l-.069-.02c-.023-.007-.046-.015-.067-.024a.91.91,0,0,1-.1-.047.787.787,0,0,1-.094-.059.806.806,0,0,1-.072-.061.632.632,0,0,1-.062-.07.745.745,0,0,1-.061-.09c-.018-.031-.034-.064-.049-.1s-.021-.049-.031-.074-.018-.05-.027-.075c-.016-.052-.031-.105-.043-.158s-.023-.107-.032-.161c-.021-.132-.035-.265-.043-.4-.011-.155-.014-.311-.014-.466v-6.091h2.623a1.577,1.577,0,0,0,.307-.029,1.171,1.171,0,0,0,.222-.069.948.948,0,0,0,.17-.09,1.089,1.089,0,0,0,.158-.127,1.032,1.032,0,0,0,.127-.158,1.053,1.053,0,0,0,.092-.169,1.2,1.2,0,0,0,.069-.223,1.342,1.342,0,0,0,.021-.153,1.494,1.494,0,0,0,.007-.155,1.473,1.473,0,0,0-.007-.154,1.247,1.247,0,0,0-.022-.153,1.1,1.1,0,0,0-.159-.391.988.988,0,0,0-.285-.285.938.938,0,0,0-.169-.09,1.138,1.138,0,0,0-.222-.069,1.485,1.485,0,0,0-.308-.03h-2.617q0-.388,0-.776c0-.258,0-.518,0-.776v-.119c0-.039,0-.079,0-.118V474.5a.107.107,0,0,1,0-.021v-.022s0-.007,0-.011a.046.046,0,0,1,0-.011c0-.007,0-.014,0-.022s0-.03,0-.045,0-.03,0-.044l-.006-.045c0-.014,0-.03-.007-.045s-.005-.029-.008-.043-.006-.029-.01-.042-.014-.057-.022-.084-.022-.065-.036-.1-.028-.062-.043-.092a1.078,1.078,0,0,0-.119-.184c-.024-.029-.049-.057-.076-.083a1,1,0,0,0-.083-.075c-.028-.023-.059-.044-.088-.064s-.063-.039-.1-.055a1.2,1.2,0,0,0-.189-.077c-.029-.009-.059-.017-.087-.025l-.09-.018-.088-.012c-.03,0-.06-.006-.089-.007-.058,0-.116,0-.174,0l-.087.005c-.03,0-.059,0-.087.009-.051.007-.1.016-.15.028a1.188,1.188,0,0,0-.146.045c-.032.012-.065.026-.1.041s-.062.032-.092.05a1.065,1.065,0,0,0-.177.135c-.027.025-.053.052-.078.08s-.048.058-.069.089-.04.06-.057.091-.033.064-.048.1a1.219,1.219,0,0,0-.077.24c-.007.03-.013.06-.017.091s-.008.06-.011.09,0,.057-.007.087,0,.058,0,.087q0,.994.006,1.987h-1.194a1.482,1.482,0,0,0-.307.03,1.123,1.123,0,0,0-.223.069.972.972,0,0,0-.169.09,1.108,1.108,0,0,0-.157.127A1.044,1.044,0,0,0,7280,477a1.134,1.134,0,0,0-.09.169,1.187,1.187,0,0,0-.069.222,1.471,1.471,0,0,0-.022.153c0,.051-.006.1-.006.154s0,.1.006.155a1.464,1.464,0,0,0,.022.153,1.2,1.2,0,0,0,.069.223,1.048,1.048,0,0,0,.091.169.967.967,0,0,0,.128.158,1.015,1.015,0,0,0,.158.127.939.939,0,0,0,.169.09,1.2,1.2,0,0,0,.223.069,1.567,1.567,0,0,0,.306.029h1.2v6.091c0,.268.01.536.036.8a6.044,6.044,0,0,0,.119.755,4.362,4.362,0,0,0,.22.7,3.654,3.654,0,0,0,.189.391,3.272,3.272,0,0,0,.194.3,3.152,3.152,0,0,0,.23.281,2.947,2.947,0,0,0,.265.254,2.848,2.848,0,0,0,.3.221,2.93,2.93,0,0,0,.329.186,3.546,3.546,0,0,0,.505.2,4.487,4.487,0,0,0,.808.165c.146.016.294.026.441.032l.111,0h.229a4.083,4.083,0,0,0,.466-.042c.086-.012.174-.027.259-.045s.171-.037.257-.059.15-.04.224-.063.148-.047.221-.072l.109-.039.109-.042.043-.017.044-.018.043-.018.044-.019c.037-.016.074-.034.109-.054.019-.01.036-.021.053-.031l.051-.035a.968.968,0,0,0,.1-.074,1.189,1.189,0,0,0,.167-.177.99.99,0,0,0,.068-.1,1.1,1.1,0,0,0,.1-.211.9.9,0,0,0,.031-.106.939.939,0,0,0,.022-.11,1.175,1.175,0,0,0,.013-.207,1.252,1.252,0,0,0-.159-.576,1.244,1.244,0,0,0-.111-.169,1.342,1.342,0,0,0-.136-.148,1.247,1.247,0,0,0-.169-.129,1.143,1.143,0,0,0-.2-.1,1.117,1.117,0,0,0-.225-.063,1.155,1.155,0,0,0-.481.021A1.49,1.49,0,0,0,7287.005,486.628Z" transform="translate(-7242.387 -473.274)" fill="#231f20"/>
          <path id="Path_1569" data-name="Path 1569" d="M8138.062,694.937a5.016,5.016,0,0,0-1-.324,4.873,4.873,0,0,0-1.148-.106,5.686,5.686,0,0,0-.762.052,5.385,5.385,0,0,0-.615.117,5.1,5.1,0,0,0-.762.254,4.56,4.56,0,0,0-.725.386q-.089.059-.176.122a1.162,1.162,0,0,0-.043-.126,1.1,1.1,0,0,0-.058-.12,1.058,1.058,0,0,0-.115-.168,1,1,0,0,0-.145-.143,1.046,1.046,0,0,0-.162-.108,1.14,1.14,0,0,0-.178-.079,1.325,1.325,0,0,0-.144-.04c-.049-.01-.1-.019-.146-.024s-.105-.009-.158-.01h-.079l-.078,0a1.486,1.486,0,0,0-.328.054,1.234,1.234,0,0,0-.181.069,1.091,1.091,0,0,0-.17.1,1.16,1.16,0,0,0-.153.135,1.119,1.119,0,0,0-.124.162,1.107,1.107,0,0,0-.087.172,1.226,1.226,0,0,0-.069.237,1.677,1.677,0,0,0-.028.32v10.065a1.7,1.7,0,0,0,.031.337,1.289,1.289,0,0,0,.073.24,1.15,1.15,0,0,0,.1.181,1.117,1.117,0,0,0,.136.166,1.009,1.009,0,0,0,.166.135,1.148,1.148,0,0,0,.181.1,1.329,1.329,0,0,0,.24.074,1.641,1.641,0,0,0,.168.024c.057.005.113.007.17.007s.114,0,.17-.007a1.641,1.641,0,0,0,.168-.024,1.153,1.153,0,0,0,.122-.031,1.02,1.02,0,0,0,.118-.043,1,1,0,0,0,.18-.1.855.855,0,0,0,.087-.063c.028-.023.054-.047.08-.072s.049-.052.072-.08.043-.057.064-.087a1.12,1.12,0,0,0,.1-.18c.016-.038.03-.078.043-.117s.022-.081.031-.121a1.647,1.647,0,0,0,.024-.169c0-.056.008-.113.008-.17v-5.953a3.033,3.033,0,0,1,.5-1.674,3.071,3.071,0,0,1,.361-.448,3.024,3.024,0,0,1,.44-.37,2.96,2.96,0,0,1,.5-.279,2.882,2.882,0,0,1,.277-.1,2.684,2.684,0,0,1,.286-.076,2.968,2.968,0,0,1,.3-.049c.052-.006.1-.01.153-.013l.077,0,.077,0h.075l.075,0c.049,0,.1.006.149.011.1.009.2.024.3.042l.14.03c.046.011.093.023.139.036s.091.027.137.043.091.031.135.049a1.253,1.253,0,0,0,.208.082,1.129,1.129,0,0,0,.669-.009.99.99,0,0,0,.12-.047,1.158,1.158,0,0,0,.2-.118,1.252,1.252,0,0,0,.177-.155,1.332,1.332,0,0,0,.24-.358,1.309,1.309,0,0,0,.074-.2,1.238,1.238,0,0,0,.04-.212c0-.039.005-.076.006-.115a1.138,1.138,0,0,0,0-.115,1.174,1.174,0,0,0-.146-.477,1.162,1.162,0,0,0-.162-.218,1.131,1.131,0,0,0-.213-.176A1.272,1.272,0,0,0,8138.062,694.937Z" transform="translate(-8080.938 -691.367)" fill="#231f20"/>
        </g>
      </g>
      <path id="Path_1570" data-name="Path 1570" d="M4167.284,1146.939h-3.465a.718.718,0,0,1-.717-.718h0a.718.718,0,0,1,.717-.718h3.465a.718.718,0,0,1,.717.718h0A.717.717,0,0,1,4167.284,1146.939Z" transform="translate(-4142.12 -1134.704)" fill="#231f20"/>
      <g id="Group_464" data-name="Group 464" transform="translate(0 4.312)">
        <g id="Group_463" data-name="Group 463">
          <g id="Group_461" data-name="Group 461" transform="translate(0.567 0.566)">
            <path id="Path_1571" data-name="Path 1571" d="M2746.149,744.741a.4.4,0,0,1-.4-.4v-6.51a3.565,3.565,0,0,0-3.687-3.78,3.641,3.641,0,0,0-3.71,3.85v6.44a.4.4,0,0,1-.4.4h-.35a.4.4,0,0,1-.4-.4V737.9a3.7,3.7,0,1,0-7.4,0v6.44a.4.4,0,0,1-.4.4h-.35a.4.4,0,0,1-.4-.4V733.554a.34.34,0,0,1,.34-.34h.4a.34.34,0,0,1,.34.336l.019,1.578a4.06,4.06,0,0,1,3.757-2.147,4.239,4.239,0,0,1,4.27,2.847,4.454,4.454,0,0,1,4.27-2.847,4.637,4.637,0,0,1,4.83,4.854v6.51a.4.4,0,0,1-.4.4h-.35Z" transform="translate(-2728.601 -732.91)" fill="#231f20"/>
            <path id="Path_1572" data-name="Path 1572" d="M2741.574,739.883h-.35a.468.468,0,0,1-.468-.467v-6.51a4.206,4.206,0,0,0-.263-1.5,3.413,3.413,0,0,0-.738-1.171,3.293,3.293,0,0,0-1.14-.763,3.918,3.918,0,0,0-1.475-.274,3.824,3.824,0,0,0-1.478.284,3.364,3.364,0,0,0-1.148.787,3.882,3.882,0,0,0-1.013,2.707v6.44a.468.468,0,0,1-.468.467h-.35a.468.468,0,0,1-.468-.467v-6.44a4.213,4.213,0,0,0-.267-1.508,3.5,3.5,0,0,0-.746-1.188,3.353,3.353,0,0,0-1.148-.779,4.02,4.02,0,0,0-2.952,0,3.315,3.315,0,0,0-1.14.779,3.491,3.491,0,0,0-.738,1.188,4.258,4.258,0,0,0-.263,1.508v6.44a.468.468,0,0,1-.467.467h-.351a.468.468,0,0,1-.467-.467V728.625a.411.411,0,0,1,.411-.411h.4a.412.412,0,0,1,.411.406l.016,1.314a3.867,3.867,0,0,1,1.515-1.44,4.646,4.646,0,0,1,2.174-.513,5.025,5.025,0,0,1,2.574.663,3.928,3.928,0,0,1,1.7,2.052,4.294,4.294,0,0,1,1.691-1.99,4.837,4.837,0,0,1,2.575-.725,5.35,5.35,0,0,1,1.972.36,4.493,4.493,0,0,1,2.567,2.57,5.423,5.423,0,0,1,.363,2v6.51A.468.468,0,0,1,2741.574,739.883Zm-4.434-10.829a4.058,4.058,0,0,1,1.528.284,3.438,3.438,0,0,1,1.189.8,3.554,3.554,0,0,1,.769,1.22,4.348,4.348,0,0,1,.272,1.551v6.51a.326.326,0,0,0,.326.326h.35a.326.326,0,0,0,.325-.326v-6.51a4.565,4.565,0,0,0-4.759-4.783,4.7,4.7,0,0,0-2.5.7,4.158,4.158,0,0,0-1.7,2.1l-.07.19-.063-.193a3.819,3.819,0,0,0-1.7-2.155,4.885,4.885,0,0,0-2.5-.643,4.505,4.505,0,0,0-2.108.5,3.757,3.757,0,0,0-1.586,1.612l-.13.249-.023-1.859a.27.27,0,0,0-.269-.266h-.4a.269.269,0,0,0-.269.269v10.791a.326.326,0,0,0,.325.326h.35a.326.326,0,0,0,.326-.326v-6.44a4.4,4.4,0,0,1,.272-1.558,3.634,3.634,0,0,1,.768-1.236,3.456,3.456,0,0,1,1.189-.812,4.162,4.162,0,0,1,3.061,0,3.493,3.493,0,0,1,1.2.812,3.646,3.646,0,0,1,.777,1.235,4.356,4.356,0,0,1,.276,1.558v6.44a.326.326,0,0,0,.326.326h.35a.326.326,0,0,0,.326-.326v-6.44a4.023,4.023,0,0,1,1.052-2.805,3.5,3.5,0,0,1,1.2-.82A3.964,3.964,0,0,1,2737.141,729.054Z" transform="translate(-2723.676 -727.981)" fill="#231f20"/>
          </g>
          <g id="Group_462" data-name="Group 462">
            <path id="Path_1573" data-name="Path 1573" d="M2707.127,705.934h-.35a.964.964,0,0,1-.963-.963v-6.51a3.713,3.713,0,0,0-.231-1.325,2.914,2.914,0,0,0-.63-1,3.057,3.057,0,0,0-2.259-.887,3.327,3.327,0,0,0-1.287.246,2.87,2.87,0,0,0-.98.672,3.051,3.051,0,0,0-.642,1.03,3.75,3.75,0,0,0-.234,1.336v6.44a.964.964,0,0,1-.963.963h-.35a.964.964,0,0,1-.963-.963v-6.44a3.718,3.718,0,0,0-.234-1.331,3.005,3.005,0,0,0-.64-1.021,2.86,2.86,0,0,0-.98-.665,3.367,3.367,0,0,0-1.289-.244,2.934,2.934,0,0,0-2.889,1.927,3.768,3.768,0,0,0-.231,1.333v6.44a.964.964,0,0,1-.963.963h-.35a.964.964,0,0,1-.963-.963V694.181a.907.907,0,0,1,.906-.906h.4a.906.906,0,0,1,.906.884,4.379,4.379,0,0,1,.8-.547,5.142,5.142,0,0,1,2.406-.571,5.519,5.519,0,0,1,2.827.733,4.391,4.391,0,0,1,1.466,1.413,4.8,4.8,0,0,1,1.408-1.345,5.2,5.2,0,0,1,1.37-.6,5.48,5.48,0,0,1,1.469-.2,5.844,5.844,0,0,1,2.154.394,4.989,4.989,0,0,1,2.846,2.849,5.914,5.914,0,0,1,.4,2.177v6.51A.964.964,0,0,1,2707.127,705.934Zm-.18-1.133h.01v-6.34a4.782,4.782,0,0,0-.318-1.762,3.976,3.976,0,0,0-.512-.925,4.129,4.129,0,0,1,.516.96,4.84,4.84,0,0,1,.3,1.727Zm-8.541,0h.01v-6.27q0-.249.022-.489l-.045.122q.012.181.012.366Zm-8.54,0h.01v-6.27a5.282,5.282,0,0,1,.037-.632l-.048.091Z" transform="translate(-2688.663 -692.97)" fill="#231f20"/>
            <path id="Path_1574" data-name="Path 1574" d="M2702.2,701.075h-.35a1.035,1.035,0,0,1-1.034-1.034v-6.51a3.645,3.645,0,0,0-.226-1.3,2.849,2.849,0,0,0-.615-.978,2.987,2.987,0,0,0-2.208-.865,3.256,3.256,0,0,0-1.26.241,2.8,2.8,0,0,0-.957.655,2.98,2.98,0,0,0-.627,1.006,3.682,3.682,0,0,0-.23,1.311v6.44a1.035,1.035,0,0,1-1.034,1.034h-.35a1.035,1.035,0,0,1-1.034-1.034V693.6a3.654,3.654,0,0,0-.229-1.306,2.941,2.941,0,0,0-.625-1,2.791,2.791,0,0,0-.956-.648,3.3,3.3,0,0,0-1.262-.238,2.864,2.864,0,0,0-2.823,1.881,3.706,3.706,0,0,0-.227,1.308v6.44a1.035,1.035,0,0,1-1.034,1.034h-.35a1.035,1.035,0,0,1-1.034-1.034V689.251a.978.978,0,0,1,.977-.977h.4a.977.977,0,0,1,.964.815,4.5,4.5,0,0,1,.712-.469,5.214,5.214,0,0,1,2.44-.579,5.59,5.59,0,0,1,2.864.743,4.5,4.5,0,0,1,1.195,1.028c.083.1.163.209.237.32a4.861,4.861,0,0,1,1.369-1.279,5.267,5.267,0,0,1,1.388-.61,5.553,5.553,0,0,1,1.488-.2,5.913,5.913,0,0,1,2.18.4,5.059,5.059,0,0,1,2.886,2.889,5.982,5.982,0,0,1,.4,2.2v6.51A1.035,1.035,0,0,1,2702.2,701.075Zm-4.434-10.829a3.125,3.125,0,0,1,2.31.908,2.986,2.986,0,0,1,.646,1.027,3.786,3.786,0,0,1,.235,1.35v6.51a.893.893,0,0,0,.892.892h.35a.893.893,0,0,0,.892-.892v-6.51a5.842,5.842,0,0,0-.392-2.151,4.918,4.918,0,0,0-2.806-2.809,5.774,5.774,0,0,0-2.128-.389,5.41,5.41,0,0,0-1.45.2,5.122,5.122,0,0,0-1.351.593,4.71,4.71,0,0,0-1.388,1.325l-.061.088-.058-.09a4.322,4.322,0,0,0-1.443-1.39,5.449,5.449,0,0,0-2.791-.723,5.072,5.072,0,0,0-2.374.563,4.337,4.337,0,0,0-.79.538l-.114.1,0-.15a.835.835,0,0,0-.835-.815h-.4a.836.836,0,0,0-.835.835v10.791a.893.893,0,0,0,.892.892h.35a.893.893,0,0,0,.892-.892V693.6a3.84,3.84,0,0,1,.236-1.358,3,3,0,0,1,2.955-1.973,3.44,3.44,0,0,1,1.316.249,2.931,2.931,0,0,1,1,.681,3.075,3.075,0,0,1,.655,1.045,3.792,3.792,0,0,1,.239,1.357v6.44a.893.893,0,0,0,.892.892h.35a.893.893,0,0,0,.892-.892V693.6a3.819,3.819,0,0,1,.239-1.361,3.119,3.119,0,0,1,.657-1.054,2.941,2.941,0,0,1,1-.688A3.4,3.4,0,0,1,2697.763,690.246Zm4.335,9.7h-.152v-6.411a4.772,4.772,0,0,0-.3-1.7,4.068,4.068,0,0,0-.507-.943l.114-.084a4.064,4.064,0,0,1,.522.942,4.854,4.854,0,0,1,.323,1.788Zm-8.54,0h-.152V693.6c0-.121,0-.243-.012-.361v-.015l.238-.641-.05.535c-.015.158-.022.32-.022.482Zm-8.54,0h-.152v-6.9l.236-.45-.046.385a5.2,5.2,0,0,0-.037.624Z" transform="translate(-2683.731 -688.04)" fill="#231f20"/>
          </g>
        </g>
      </g>
    </g>
  </g>
</svg>
